<svg width="465.1619140625px" height="75.19999999999999px" xmlns="http://www.w3.org/2000/svg" viewBox="17.419042968750006 37.400000000000006 465.1619140625 75.19999999999999" style="background: rgba(0, 0, 0, 0);" preserveAspectRatio="xMidYMid"><defs><filter id="editing-extrusion" x="-100%" y="-100%" width="300%" height="300%"><feFlood result="color1" flood-color="#444"></feFlood><feConvolveMatrix order="8,8" divisor="1" kernelMatrix="1 0 0 0 0 0 0 0 0 1 0 0 0 0 0 0 0 0 1 0 0 0 0 0 0 0 0 1 0 0 0 0 0 0 0 0 1 0 0 0 0 0 0 0 0 1 0 0 0 0 0 0 0 0 1 0 0 0 0 0 0 0 0 1" in="SourceAlpha" result="extrude"></feConvolveMatrix><feComposite in="color1" in2="extrude" result="comp-extrude" operator="in"></feComposite><feOffset dx="4" dy="4" in="comp-extrude" result="offset-extrude"></feOffset><feMerge><feMergeNode in="offset-extrude"></feMergeNode><feMergeNode in="SourceGraphic"></feMergeNode></feMerge></filter></defs><g filter="url(#editing-extrusion)"><g transform="translate(86.24069881439209, 88.125)"><path d="M3.40-17.05L3.40-17.05L3.40-17.05Q2.21-17.96 2.21-19.90L2.21-19.90L2.21-19.90Q2.21-21.84 3.48-22.86L3.48-22.86L3.48-22.86Q4.76-23.87 6.97-23.87L6.97-23.87L6.97-23.87Q8.37-23.87 11.69-23.38L11.69-23.38L14.07-23.03L14.07-23.03Q15.26-22.89 16.50-22.89L16.50-22.89L16.50-22.89Q17.75-22.89 18.59-23.42L18.59-23.42L18.59-23.42Q19.85-22.30 19.85-20.69L19.85-20.69L19.85-20.69Q19.85-19.08 18.41-17.92L18.41-17.92L18.41-17.92Q16.94-16.70 15.05-16.70L15.05-16.70L15.05-16.70Q14.14-16.70 12.67-16.94L12.67-16.94L12.67-16.94Q10.96-11.55 10.96-7.81L10.96-7.81L10.96-7.81Q10.96-4.06 12.85-2.10L12.85-2.10L12.85-2.10Q11.97-0.53 10.68 0.09L10.68 0.09L10.68 0.09Q9.38 0.70 7.44 0.70L7.44 0.70L7.44 0.70Q5.50 0.70 4.29-0.37L4.29-0.37L4.29-0.37Q3.08-1.44 3.08-3.64L3.08-3.64L3.08-3.64Q3.08-6.20 4.48-10.40L4.48-10.40L4.48-10.40Q5.88-14.56 7.98-17.75L7.98-17.75L7.98-17.75Q6.97-17.85 5.92-17.85L5.92-17.85L5.92-17.85Q3.75-17.85 3.40-17.05ZM27.13-1.93L27.13-1.93L27.13-1.93Q26.04 0.70 22.58 0.70L22.58 0.70L22.58 0.70Q20.79 0.70 19.67-0.53L19.67-0.53L19.67-0.53Q18.73-1.61 18.73-2.70L18.73-2.70L18.73-2.70Q18.73-5.53 20.02-11.06L20.02-11.06L21.32-17.85L28.42-18.55L26.29-7.49L26.29-7.49Q25.69-4.90 25.69-3.99L25.69-3.99L25.69-3.99Q25.69-2.00 27.13-1.93ZM21.95-22.72L21.95-22.72L21.95-22.72Q21.95-24.08 23.08-24.82L23.08-24.82L23.08-24.82Q24.22-25.55 25.87-25.55L25.87-25.55L25.87-25.55Q27.51-25.55 28.51-24.82L28.51-24.82L28.51-24.82Q29.51-24.08 29.51-22.72L29.51-22.72L29.51-22.72Q29.51-21.35 28.40-20.65L28.40-20.65L28.40-20.65Q27.30-19.95 25.66-19.95L25.66-19.95L25.66-19.95Q24.01-19.95 22.98-20.65L22.98-20.65L22.98-20.65Q21.95-21.35 21.95-22.72ZM39.13-16.59L39.13-16.59L39.13-16.59Q41.02-18.55 45.01-18.55L45.01-18.55L45.01-18.55Q47.22-18.55 48.42-17.38L48.42-17.38L48.42-17.38Q49.63-16.21 49.63-14.05L49.63-14.05L49.63-14.05Q49.63-11.90 48.42-10.38L48.42-10.38L48.42-10.38Q47.22-8.86 44.98-8.23L44.98-8.23L44.98-8.23Q45.15-7.53 45.40-6.79L45.40-6.79L45.89-5.39L45.89-5.39Q46.55-3.61 47.08-2.98L47.08-2.98L47.08-2.98Q47.60-2.35 48.30-2.14L48.30-2.14L48.30-2.14Q47.92-0.70 46.52 0.07L46.52 0.07L46.52 0.07Q45.40 0.70 43.86 0.70L43.86 0.70L43.86 0.70Q39.34 0.70 38.75-6.27L38.75-6.27L38.75-6.27Q38.64-7.25 38.64-8.23L38.64-8.23L38.64-8.23Q40.39-8.72 41.62-10.36L41.62-10.36L41.62-10.36Q42.84-12.01 42.84-13.93L42.84-13.93L42.84-13.93Q42.84-15.86 41.48-15.86L41.48-15.86L41.48-15.86Q40.50-15.86 39.73-14.77L39.73-14.77L39.73-14.77Q38.96-13.69 38.61-11.83L38.61-11.83L36.30 0L29.23 0.70L34.13-24.50L41.16-25.20L40.36-21.04L40.36-21.04Q39.83-18.10 39.13-16.59ZM53.41-17.05L53.41-17.05L53.41-17.05Q52.22-17.96 52.22-19.90L52.22-19.90L52.22-19.90Q52.22-21.84 53.50-22.86L53.50-22.86L53.50-22.86Q54.77-23.87 56.98-23.87L56.98-23.87L56.98-23.87Q58.38-23.87 61.70-23.38L61.70-23.38L64.09-23.03L64.09-23.03Q65.28-22.89 66.52-22.89L66.52-22.89L66.52-22.89Q67.76-22.89 68.60-23.42L68.60-23.42L68.60-23.42Q69.86-22.30 69.86-20.69L69.86-20.69L69.86-20.69Q69.86-19.08 68.42-17.92L68.42-17.92L68.42-17.92Q66.95-16.70 65.06-16.70L65.06-16.70L65.06-16.70Q64.16-16.70 62.69-16.94L62.69-16.94L62.69-16.94Q60.97-11.55 60.97-7.81L60.97-7.81L60.97-7.81Q60.97-4.06 62.86-2.10L62.86-2.10L62.86-2.10Q61.98-0.53 60.69 0.09L60.69 0.09L60.69 0.09Q59.40 0.70 57.45 0.70L57.45 0.70L57.45 0.70Q55.51 0.70 54.30-0.37L54.30-0.37L54.30-0.37Q53.09-1.44 53.09-3.64L53.09-3.64L53.09-3.64Q53.09-6.20 54.50-10.40L54.50-10.40L54.50-10.40Q55.90-14.56 58.00-17.75L58.00-17.75L58.00-17.75Q56.98-17.85 55.93-17.85L55.93-17.85L55.93-17.85Q53.76-17.85 53.41-17.05ZM74.76 0.70L74.76 0.70L74.76 0.70Q67.06 0.70 67.06-6.55L67.06-6.55L67.06-6.55Q67.06-11.69 69.90-15.02L69.90-15.02L69.90-15.02Q72.91-18.55 78.12-18.55L78.12-18.55L78.12-18.55Q81.90-18.55 83.83-16.80L83.83-16.80L83.83-16.80Q85.75-15.05 85.75-11.38L85.75-11.38L85.75-11.38Q85.75-5.78 82.74-2.52L82.74-2.52L82.74-2.52Q79.80 0.70 74.76 0.70ZM75.67-14.53L75.67-14.53L75.67-14.53Q75.25-13.58 74.92-12.16L74.92-12.16L74.92-12.16Q74.59-10.75 74.17-8.51L74.17-8.51L74.17-8.51Q73.75-6.27 73.75-3.50L73.75-3.50L73.75-3.50Q73.75-2.59 74.04-2.00L74.04-2.00L74.04-2.00Q74.34-1.40 75.15-1.40L75.15-1.40L75.15-1.40Q75.95-1.40 76.46-1.79L76.46-1.79L76.46-1.79Q76.97-2.17 77.35-3.08L77.35-3.08L77.35-3.08Q78.05-4.69 78.61-7.68L78.61-7.68L78.61-7.68Q79.17-10.68 79.22-11.97L79.22-11.97L79.22-11.97Q79.28-13.27 79.28-14.23L79.28-14.23L79.28-14.23Q79.28-15.19 79.00-15.82L79.00-15.82L79.00-15.82Q78.72-16.45 77.93-16.45L77.93-16.45L77.93-16.45Q77.14-16.45 76.62-15.96L76.62-15.96L76.62-15.96Q76.09-15.47 75.67-14.53ZM96.85-16.59L96.85-16.59L96.85-16.59Q98.74-18.55 102.73-18.55L102.73-18.55L102.73-18.55Q104.93-18.55 106.14-17.38L106.14-17.38L106.14-17.38Q107.35-16.21 107.35-14.05L107.35-14.05L107.35-14.05Q107.35-11.90 106.14-10.38L106.14-10.38L106.14-10.38Q104.93-8.86 102.69-8.23L102.69-8.23L102.69-8.23Q102.87-7.53 103.11-6.79L103.11-6.79L103.60-5.39L103.60-5.39Q104.27-3.61 104.79-2.98L104.79-2.98L104.79-2.98Q105.32-2.35 106.02-2.14L106.02-2.14L106.02-2.14Q105.63-0.70 104.23 0.07L104.23 0.07L104.23 0.07Q103.11 0.70 101.57 0.70L101.57 0.70L101.57 0.70Q97.06 0.70 96.46-6.27L96.46-6.27L96.46-6.27Q96.36-7.25 96.36-8.23L96.36-8.23L96.36-8.23Q98.11-8.72 99.33-10.36L99.33-10.36L99.33-10.36Q100.56-12.01 100.56-13.93L100.56-13.93L100.56-13.93Q100.56-15.86 99.19-15.86L99.19-15.86L99.19-15.86Q98.21-15.86 97.44-14.77L97.44-14.77L97.44-14.77Q96.67-13.69 96.32-11.83L96.32-11.83L94.01 0L86.94 0.70L91.84-24.50L98.88-25.20L98.07-21.04L98.07-21.04Q97.55-18.10 96.85-16.59ZM138.88-14.53L138.88-14.53L138.88-14.53Q138.88 0.39 122.71 0.39L122.71 0.39L122.71 0.39Q120.12 0.39 115.85-0.25L115.85-0.25L119.77-20.93L119.77-20.93Q120.05-22.33 120.23-23.14L120.23-23.14L120.23-23.14Q125.55-23.52 127.91-23.52L127.91-23.52L127.91-23.52Q130.27-23.52 132.44-23.03L132.44-23.03L132.44-23.03Q134.61-22.54 136.05-21.46L136.05-21.46L136.05-21.46Q138.88-19.32 138.88-14.53ZM131.67-15.82L131.67-15.82L131.67-15.82Q131.67-21.04 127.93-21.04L127.93-21.04L127.58-21.04L127.58-21.04Q127.40-21.04 127.23-21.00L127.23-21.00L123.62-2.21L123.62-2.21Q123.76-2.14 123.90-2.14L123.90-2.14L124.18-2.14L124.18-2.14Q125.48-2.14 126.82-2.94L126.82-2.94L126.82-2.94Q128.17-3.75 129.22-5.39L129.22-5.39L129.22-5.39Q131.67-9.21 131.67-15.82ZM148.30 0.70L148.30 0.70L148.30 0.70Q140.60 0.70 140.60-6.55L140.60-6.55L140.60-6.55Q140.60-11.69 143.43-15.02L143.43-15.02L143.43-15.02Q146.44-18.55 151.66-18.55L151.66-18.55L151.66-18.55Q155.44-18.55 157.36-16.80L157.36-16.80L157.36-16.80Q159.29-15.05 159.29-11.38L159.29-11.38L159.29-11.38Q159.29-5.78 156.28-2.52L156.28-2.52L156.28-2.52Q153.34 0.70 148.30 0.70ZM149.21-14.53L149.21-14.53L149.21-14.53Q148.79-13.58 148.45-12.16L148.45-12.16L148.45-12.16Q148.12-10.75 147.70-8.51L147.70-8.51L147.70-8.51Q147.28-6.27 147.28-3.50L147.28-3.50L147.28-3.50Q147.28-2.59 147.58-2.00L147.58-2.00L147.58-2.00Q147.88-1.40 148.68-1.40L148.68-1.40L148.68-1.40Q149.49-1.40 149.99-1.79L149.99-1.79L149.99-1.79Q150.50-2.17 150.89-3.08L150.89-3.08L150.89-3.08Q151.59-4.69 152.15-7.68L152.15-7.68L152.15-7.68Q152.71-10.68 152.76-11.97L152.76-11.97L152.76-11.97Q152.81-13.27 152.81-14.23L152.81-14.23L152.81-14.23Q152.81-15.19 152.53-15.82L152.53-15.82L152.53-15.82Q152.25-16.45 151.46-16.45L151.46-16.45L151.46-16.45Q150.68-16.45 150.15-15.96L150.15-15.96L150.15-15.96Q149.63-15.47 149.21-14.53ZM187.46-5.85L187.46-5.85Q185.15-2.66 182.93-0.98L182.93-0.98L182.93-0.98Q180.71 0.70 178.41 0.70L178.41 0.70L178.41 0.70Q176.12 0.70 175.32 0.25L175.32 0.25L175.32-7.46L175.32-7.46Q173.32-2.14 169.75-0.07L169.75-0.07L169.75-0.07Q168.46 0.70 167.23 0.70L167.23 0.70L167.23 0.70Q164.89 0.70 163.87 0.25L163.87 0.25L163.87 0.25Q163.63-7.77 163.42-9.99L163.42-9.99L163.42-9.99Q163.21-12.22 163.03-13.58L163.03-13.58L163.03-13.58Q162.68-16.31 161.49-17.43L161.49-17.43L161.49-17.43Q163.00-18.55 165.10-18.55L165.10-18.55L165.10-18.55Q169.16-18.55 169.72-13.51L169.72-13.51L169.72-13.51Q169.86-12.32 169.86-11.06L169.86-11.06L169.86-11.06Q169.86-9.17 169.44-2.59L169.44-2.59L169.44-2.59Q170.28-2.98 171.17-4.36L171.17-4.36L171.17-4.36Q172.06-5.74 172.80-7.63L172.80-7.63L172.80-7.63Q174.44-12.01 174.44-15.79L174.44-15.79L174.44-15.79Q174.44-16.38 174.28-17.01L174.28-17.01L174.28-17.01Q174.13-17.64 173.95-17.82L173.95-17.82L173.95-17.82Q175.18-18.55 177.05-18.55L177.05-18.55L177.05-18.55Q178.92-18.55 179.81-17.27L179.81-17.27L179.81-17.27Q180.71-16.00 180.95-13.65L180.95-13.65L180.95-13.65Q181.23-10.68 181.23-8.89L181.23-8.89L181.23-8.89Q181.23-6.41 180.99-2.73L180.99-2.73L180.99-2.73Q182.74-3.99 184.17-8.12L184.17-8.12L184.17-8.12Q185.61-12.25 185.61-15.19L185.61-15.19L185.61-15.19Q185.61-16.49 185.40-17.26L185.40-17.26L185.40-17.26Q186.55-18.55 188.55-18.55L188.55-18.55L188.55-18.55Q189.77-18.55 190.66-17.89L190.66-17.89L190.66-17.89Q191.56-17.22 191.56-15.98L191.56-15.98L191.56-15.98Q191.56-14.74 191.19-13.41L191.19-13.41L191.19-13.41Q190.82-12.08 190.23-10.71L190.23-10.71L190.23-10.71Q189.07-7.98 187.46-5.85L187.46-5.85ZM207.31 0.70L207.31 0.70L207.31 0.70Q203.07 0.70 203.07-2.59L203.07-2.59L203.07-2.59Q203.11-3.50 203.39-5.04L203.39-5.04L204.02-8.26L204.02-8.26Q204.96-12.81 204.96-13.83L204.96-13.83L204.96-13.83Q204.96-15.86 203.77-15.86L203.77-15.86L203.77-15.86Q201.78-15.86 200.73-10.64L200.73-10.64L198.66 0L191.63 0.70L195.27-17.89L201.01-18.55L200.45-15.12L200.45-15.12Q202.09-18.55 207.13-18.55L207.13-18.55L207.13-18.55Q209.58-18.55 210.61-17.52L210.61-17.52L210.61-17.52Q211.65-16.49 211.65-14.18L211.65-14.18L211.65-14.18Q211.65-12.01 210.53-6.93L210.53-6.93L210.53-6.93Q210.00-4.66 210.00-3.80L210.00-3.80L210.00-3.80Q210.00-2.94 210.47-2.45L210.47-2.45L210.47-2.45Q210.95-1.96 211.65-1.89L211.65-1.89L211.65-1.89Q211.30-0.70 210.09 0L210.09 0L210.09 0Q208.88 0.70 207.31 0.70ZM222.81-1.93L222.81-1.93L222.81-1.93Q221.73 0.70 218.26 0.70L218.26 0.70L218.26 0.70Q216.51 0.70 215.39-0.53L215.39-0.53L215.39-0.53Q214.48-1.54 214.48-2.70L214.48-2.70L214.48-2.70Q214.48-5.32 215.71-11.06L215.71-11.06L218.26-24.50L225.37-25.20L221.97-7.49L221.97-7.49Q221.38-4.90 221.38-3.99L221.38-3.99L221.38-3.99Q221.38-2.00 222.81-1.93ZM233.42 0.70L233.42 0.70L233.42 0.70Q225.72 0.70 225.72-6.55L225.72-6.55L225.72-6.55Q225.72-11.69 228.55-15.02L228.55-15.02L228.55-15.02Q231.56-18.55 236.78-18.55L236.78-18.55L236.78-18.55Q240.56-18.55 242.48-16.80L242.48-16.80L242.48-16.80Q244.41-15.05 244.41-11.38L244.41-11.38L244.41-11.38Q244.41-5.78 241.40-2.52L241.40-2.52L241.40-2.52Q238.46 0.70 233.42 0.70ZM234.33-14.53L234.33-14.53L234.33-14.53Q233.91-13.58 233.57-12.16L233.57-12.16L233.57-12.16Q233.24-10.75 232.82-8.51L232.82-8.51L232.82-8.51Q232.40-6.27 232.40-3.50L232.40-3.50L232.40-3.50Q232.40-2.59 232.70-2.00L232.70-2.00L232.70-2.00Q233.00-1.40 233.80-1.40L233.80-1.40L233.80-1.40Q234.61-1.40 235.11-1.79L235.11-1.79L235.11-1.79Q235.62-2.17 236.01-3.08L236.01-3.08L236.01-3.08Q236.71-4.69 237.27-7.68L237.27-7.68L237.27-7.68Q237.83-10.68 237.88-11.97L237.88-11.97L237.88-11.97Q237.93-13.27 237.93-14.23L237.93-14.23L237.93-14.23Q237.93-15.19 237.65-15.82L237.65-15.82L237.65-15.82Q237.37-16.45 236.58-16.45L236.58-16.45L236.58-16.45Q235.80-16.45 235.27-15.96L235.27-15.96L235.27-15.96Q234.75-15.47 234.33-14.53ZM247.99-1.05L247.99-1.05L247.99-1.05Q247.17-1.96 246.80-3.40L246.80-3.40L246.80-3.40Q246.44-4.83 246.44-7.18L246.44-7.18L246.44-7.18Q246.44-9.52 247.24-11.66L247.24-11.66L247.24-11.66Q248.05-13.79 249.52-15.33L249.52-15.33L249.52-15.33Q252.53-18.55 257.50-18.55L257.50-18.55L257.50-18.55Q259.28-18.55 260.58-17.96L260.58-17.96L266.56-18.55L263.97-4.90L263.97-4.90Q263.87-4.48 263.87-3.71L263.87-3.71L263.87-3.71Q263.87-2.94 264.34-2.45L264.34-2.45L264.34-2.45Q264.81-1.96 265.51-1.89L265.51-1.89L265.51-1.89Q265.16-0.70 263.88 0L263.88 0L263.88 0Q262.61 0.70 261.17 0.70L261.17 0.70L261.17 0.70Q259.74 0.70 258.77 0.16L258.77 0.16L258.77 0.16Q257.81-0.39 257.53-1.30L257.53-1.30L257.53-1.30Q256.97-0.42 255.78 0.14L255.78 0.14L255.78 0.14Q254.59 0.70 253.00 0.70L253.00 0.70L253.00 0.70Q251.41 0.70 250.11 0.28L250.11 0.28L250.11 0.28Q248.82-0.14 247.99-1.05ZM255.38-15.26L255.38-15.26L255.38-15.26Q254.98-14.63 254.63-13.56L254.63-13.56L254.63-13.56Q254.28-12.50 253.70-9.64L253.70-9.64L253.70-9.64Q253.12-6.79 253.12-4.76L253.12-4.76L253.12-4.76Q253.12-2.73 253.44-2.14L253.44-2.14L253.44-2.14Q253.75-1.54 254.31-1.54L254.31-1.54L254.31-1.54Q255.43-1.54 256.25-2.61L256.25-2.61L256.25-2.61Q257.08-3.68 257.39-5.57L257.39-5.57L259.25-15.82L259.25-15.82Q258.51-16.45 257.65-16.45L257.65-16.45L257.65-16.45Q256.80-16.45 256.29-16.17L256.29-16.17L256.29-16.17Q255.78-15.89 255.38-15.26ZM279.34-18.55L279.34-18.55L279.34-18.55Q280.60-18.55 281.58-18.27L281.58-18.27L281.58-18.27Q281.61-18.41 281.68-18.80L281.68-18.80L281.86-19.88L281.86-19.88Q282.00-20.58 282.21-21.74L282.21-21.74L282.77-24.50L289.73-25.20L285.85-4.90L285.85-4.90Q285.81-4.69 285.81-4.34L285.81-4.34L285.81-3.78L285.81-3.78Q285.81-3.01 286.20-2.43L286.20-2.43L286.20-2.43Q286.58-1.86 287.21-1.86L287.21-1.86L287.21-1.86Q286.51-0.21 284.38 0.49L284.38 0.49L284.38 0.49Q283.64 0.70 282.61 0.70L282.61 0.70L282.61 0.70Q281.58 0.70 280.63 0.16L280.63 0.16L280.63 0.16Q279.69-0.39 279.41-1.30L279.41-1.30L279.41-1.30Q278.85-0.39 277.73 0.16L277.73 0.16L277.73 0.16Q276.61 0.70 274.98 0.70L274.98 0.70L274.98 0.70Q273.35 0.70 272.00 0.28L272.00 0.28L272.00 0.28Q270.66-0.14 269.82-1.05L269.82-1.05L269.82-1.05Q268.28-2.84 268.28-6.90L268.28-6.90L268.28-6.90Q268.28-12.15 271.36-15.33L271.36-15.33L271.36-15.33Q274.44-18.55 279.34-18.55ZM279.09-16.45L279.09-16.45L279.09-16.45Q277.80-16.45 277.10-15.05L277.10-15.05L277.10-15.05Q276.40-13.65 275.68-10.19L275.68-10.19L275.68-10.19Q274.96-6.72 274.96-3.61L274.96-3.61L274.96-3.61Q274.96-1.47 276.22-1.47L276.22-1.47L276.22-1.47Q277.34-1.47 278.13-2.59L278.13-2.59L278.13-2.59Q278.92-3.71 279.23-5.57L279.23-5.57L281.12-15.82L281.12-15.82Q280.39-16.45 279.09-16.45ZM304.36-5.92L304.36-5.92L304.36-5.92Q305.24-5.32 305.24-4.01L305.24-4.01L305.24-4.01Q305.24-2.70 304.57-1.86L304.57-1.86L304.57-1.86Q303.91-1.02 302.82-0.46L302.82-0.46L302.82-0.46Q300.58 0.70 298.17 0.70L298.17 0.70L298.17 0.70Q295.75 0.70 294.33 0.18L294.33 0.18L294.33 0.18Q292.92-0.35 291.97-1.33L291.97-1.33L291.97-1.33Q290.12-3.19 290.12-6.58L290.12-6.58L290.12-6.58Q290.12-11.87 292.99-15.09L292.99-15.09L292.99-15.09Q296.07-18.55 301.42-18.55L301.42-18.55L301.42-18.55Q304.75-18.55 306.39-17.15L306.39-17.15L306.39-17.15Q307.62-16.10 307.62-14.39L307.62-14.39L307.62-14.39Q307.62-8.23 296.98-8.23L296.98-8.23L296.98-8.23Q296.84-7.32 296.84-6.55L296.84-6.55L296.84-6.55Q296.84-4.94 297.55-4.32L297.55-4.32L297.55-4.32Q298.27-3.71 299.60-3.71L299.60-3.71L299.60-3.71Q300.93-3.71 302.35-4.32L302.35-4.32L302.35-4.32Q303.77-4.94 304.36-5.92ZM297.22-9.73L297.22-9.73L297.22-9.73Q299.71-9.73 301.14-11.27L301.14-11.27L301.14-11.27Q302.58-12.74 302.58-15.09L302.58-15.09L302.58-15.09Q302.58-15.89 302.28-16.33L302.28-16.33L302.28-16.33Q301.98-16.77 301.39-16.77L301.39-16.77L301.39-16.77Q300.79-16.77 300.28-16.54L300.28-16.54L300.28-16.54Q299.78-16.31 299.25-15.54L299.25-15.54L299.25-15.54Q297.96-13.79 297.22-9.73ZM319.76-9.84L319.76-9.84L319.76-9.84Q321.02-12.08 321.02-14.35L321.02-14.35L321.02-14.35Q321.02-15.86 319.94-15.86L319.94-15.86L319.94-15.86Q319.10-15.86 318.22-14.42L318.22-14.42L318.22-14.42Q317.31-12.99 317.03-11.13L317.03-11.13L315.21 0L307.97 0.70L311.54-17.85L317.31-18.55L316.68-15.02L316.68-15.02Q318.40-18.55 322.25-18.55L322.25-18.55L322.25-18.55Q324.28-18.55 325.38-17.50L325.38-17.50L325.38-17.50Q326.48-16.45 326.48-14.30L326.48-14.30L326.48-14.30Q326.48-12.15 325.06-10.78L325.06-10.78L325.06-10.78Q323.65-9.42 321.23-9.42L321.23-9.42L321.23-9.42Q320.18-9.42 319.76-9.84Z" fill="#ccc"></path></g></g><style>text {
  font-size: 64px;
  font-family: Arial Black;
  dominant-baseline: central;
  text-anchor: middle;
}</style></svg>